%TF.GenerationSoftware,KiCad,Pcbnew,9.0.7*%
%TF.CreationDate,2026-02-17T16:21:14-05:00*%
%TF.ProjectId,Blind Spot,426c696e-6420-4537-906f-742e6b696361,rev?*%
%TF.SameCoordinates,Original*%
%TF.FileFunction,Legend,Top*%
%TF.FilePolarity,Positive*%
%FSLAX46Y46*%
G04 Gerber Fmt 4.6, Leading zero omitted, Abs format (unit mm)*
G04 Created by KiCad (PCBNEW 9.0.7) date 2026-02-17 16:21:14*
%MOMM*%
%LPD*%
G01*
G04 APERTURE LIST*
%ADD10C,0.150000*%
%ADD11C,0.120000*%
G04 APERTURE END LIST*
D10*
X156333333Y-102304819D02*
X156000000Y-101828628D01*
X155761905Y-102304819D02*
X155761905Y-101304819D01*
X155761905Y-101304819D02*
X156142857Y-101304819D01*
X156142857Y-101304819D02*
X156238095Y-101352438D01*
X156238095Y-101352438D02*
X156285714Y-101400057D01*
X156285714Y-101400057D02*
X156333333Y-101495295D01*
X156333333Y-101495295D02*
X156333333Y-101638152D01*
X156333333Y-101638152D02*
X156285714Y-101733390D01*
X156285714Y-101733390D02*
X156238095Y-101781009D01*
X156238095Y-101781009D02*
X156142857Y-101828628D01*
X156142857Y-101828628D02*
X155761905Y-101828628D01*
X157190476Y-101638152D02*
X157190476Y-102304819D01*
X156952381Y-101257200D02*
X156714286Y-101971485D01*
X156714286Y-101971485D02*
X157333333Y-101971485D01*
X155666666Y-93334819D02*
X155666666Y-94049104D01*
X155666666Y-94049104D02*
X155619047Y-94191961D01*
X155619047Y-94191961D02*
X155523809Y-94287200D01*
X155523809Y-94287200D02*
X155380952Y-94334819D01*
X155380952Y-94334819D02*
X155285714Y-94334819D01*
X156095238Y-93430057D02*
X156142857Y-93382438D01*
X156142857Y-93382438D02*
X156238095Y-93334819D01*
X156238095Y-93334819D02*
X156476190Y-93334819D01*
X156476190Y-93334819D02*
X156571428Y-93382438D01*
X156571428Y-93382438D02*
X156619047Y-93430057D01*
X156619047Y-93430057D02*
X156666666Y-93525295D01*
X156666666Y-93525295D02*
X156666666Y-93620533D01*
X156666666Y-93620533D02*
X156619047Y-93763390D01*
X156619047Y-93763390D02*
X156047619Y-94334819D01*
X156047619Y-94334819D02*
X156666666Y-94334819D01*
X148834819Y-110333333D02*
X149549104Y-110333333D01*
X149549104Y-110333333D02*
X149691961Y-110380952D01*
X149691961Y-110380952D02*
X149787200Y-110476190D01*
X149787200Y-110476190D02*
X149834819Y-110619047D01*
X149834819Y-110619047D02*
X149834819Y-110714285D01*
X149168152Y-109428571D02*
X149834819Y-109428571D01*
X148787200Y-109666666D02*
X149501485Y-109904761D01*
X149501485Y-109904761D02*
X149501485Y-109285714D01*
X149420833Y-72804819D02*
X149087500Y-72328628D01*
X148849405Y-72804819D02*
X148849405Y-71804819D01*
X148849405Y-71804819D02*
X149230357Y-71804819D01*
X149230357Y-71804819D02*
X149325595Y-71852438D01*
X149325595Y-71852438D02*
X149373214Y-71900057D01*
X149373214Y-71900057D02*
X149420833Y-71995295D01*
X149420833Y-71995295D02*
X149420833Y-72138152D01*
X149420833Y-72138152D02*
X149373214Y-72233390D01*
X149373214Y-72233390D02*
X149325595Y-72281009D01*
X149325595Y-72281009D02*
X149230357Y-72328628D01*
X149230357Y-72328628D02*
X148849405Y-72328628D01*
X150373214Y-72804819D02*
X149801786Y-72804819D01*
X150087500Y-72804819D02*
X150087500Y-71804819D01*
X150087500Y-71804819D02*
X149992262Y-71947676D01*
X149992262Y-71947676D02*
X149897024Y-72042914D01*
X149897024Y-72042914D02*
X149801786Y-72090533D01*
X140304819Y-96254166D02*
X139828628Y-96587499D01*
X140304819Y-96825594D02*
X139304819Y-96825594D01*
X139304819Y-96825594D02*
X139304819Y-96444642D01*
X139304819Y-96444642D02*
X139352438Y-96349404D01*
X139352438Y-96349404D02*
X139400057Y-96301785D01*
X139400057Y-96301785D02*
X139495295Y-96254166D01*
X139495295Y-96254166D02*
X139638152Y-96254166D01*
X139638152Y-96254166D02*
X139733390Y-96301785D01*
X139733390Y-96301785D02*
X139781009Y-96349404D01*
X139781009Y-96349404D02*
X139828628Y-96444642D01*
X139828628Y-96444642D02*
X139828628Y-96825594D01*
X139304819Y-95920832D02*
X139304819Y-95301785D01*
X139304819Y-95301785D02*
X139685771Y-95635118D01*
X139685771Y-95635118D02*
X139685771Y-95492261D01*
X139685771Y-95492261D02*
X139733390Y-95397023D01*
X139733390Y-95397023D02*
X139781009Y-95349404D01*
X139781009Y-95349404D02*
X139876247Y-95301785D01*
X139876247Y-95301785D02*
X140114342Y-95301785D01*
X140114342Y-95301785D02*
X140209580Y-95349404D01*
X140209580Y-95349404D02*
X140257200Y-95397023D01*
X140257200Y-95397023D02*
X140304819Y-95492261D01*
X140304819Y-95492261D02*
X140304819Y-95777975D01*
X140304819Y-95777975D02*
X140257200Y-95873213D01*
X140257200Y-95873213D02*
X140209580Y-95920832D01*
X132304819Y-96341666D02*
X131828628Y-96674999D01*
X132304819Y-96913094D02*
X131304819Y-96913094D01*
X131304819Y-96913094D02*
X131304819Y-96532142D01*
X131304819Y-96532142D02*
X131352438Y-96436904D01*
X131352438Y-96436904D02*
X131400057Y-96389285D01*
X131400057Y-96389285D02*
X131495295Y-96341666D01*
X131495295Y-96341666D02*
X131638152Y-96341666D01*
X131638152Y-96341666D02*
X131733390Y-96389285D01*
X131733390Y-96389285D02*
X131781009Y-96436904D01*
X131781009Y-96436904D02*
X131828628Y-96532142D01*
X131828628Y-96532142D02*
X131828628Y-96913094D01*
X131400057Y-95960713D02*
X131352438Y-95913094D01*
X131352438Y-95913094D02*
X131304819Y-95817856D01*
X131304819Y-95817856D02*
X131304819Y-95579761D01*
X131304819Y-95579761D02*
X131352438Y-95484523D01*
X131352438Y-95484523D02*
X131400057Y-95436904D01*
X131400057Y-95436904D02*
X131495295Y-95389285D01*
X131495295Y-95389285D02*
X131590533Y-95389285D01*
X131590533Y-95389285D02*
X131733390Y-95436904D01*
X131733390Y-95436904D02*
X132304819Y-96008332D01*
X132304819Y-96008332D02*
X132304819Y-95389285D01*
X132494819Y-86373094D02*
X131494819Y-86373094D01*
X131494819Y-86373094D02*
X131494819Y-86134999D01*
X131494819Y-86134999D02*
X131542438Y-85992142D01*
X131542438Y-85992142D02*
X131637676Y-85896904D01*
X131637676Y-85896904D02*
X131732914Y-85849285D01*
X131732914Y-85849285D02*
X131923390Y-85801666D01*
X131923390Y-85801666D02*
X132066247Y-85801666D01*
X132066247Y-85801666D02*
X132256723Y-85849285D01*
X132256723Y-85849285D02*
X132351961Y-85896904D01*
X132351961Y-85896904D02*
X132447200Y-85992142D01*
X132447200Y-85992142D02*
X132494819Y-86134999D01*
X132494819Y-86134999D02*
X132494819Y-86373094D01*
X131590057Y-85420713D02*
X131542438Y-85373094D01*
X131542438Y-85373094D02*
X131494819Y-85277856D01*
X131494819Y-85277856D02*
X131494819Y-85039761D01*
X131494819Y-85039761D02*
X131542438Y-84944523D01*
X131542438Y-84944523D02*
X131590057Y-84896904D01*
X131590057Y-84896904D02*
X131685295Y-84849285D01*
X131685295Y-84849285D02*
X131780533Y-84849285D01*
X131780533Y-84849285D02*
X131923390Y-84896904D01*
X131923390Y-84896904D02*
X132494819Y-85468332D01*
X132494819Y-85468332D02*
X132494819Y-84849285D01*
X134916667Y-71907200D02*
X135059524Y-71954819D01*
X135059524Y-71954819D02*
X135297619Y-71954819D01*
X135297619Y-71954819D02*
X135392857Y-71907200D01*
X135392857Y-71907200D02*
X135440476Y-71859580D01*
X135440476Y-71859580D02*
X135488095Y-71764342D01*
X135488095Y-71764342D02*
X135488095Y-71669104D01*
X135488095Y-71669104D02*
X135440476Y-71573866D01*
X135440476Y-71573866D02*
X135392857Y-71526247D01*
X135392857Y-71526247D02*
X135297619Y-71478628D01*
X135297619Y-71478628D02*
X135107143Y-71431009D01*
X135107143Y-71431009D02*
X135011905Y-71383390D01*
X135011905Y-71383390D02*
X134964286Y-71335771D01*
X134964286Y-71335771D02*
X134916667Y-71240533D01*
X134916667Y-71240533D02*
X134916667Y-71145295D01*
X134916667Y-71145295D02*
X134964286Y-71050057D01*
X134964286Y-71050057D02*
X135011905Y-71002438D01*
X135011905Y-71002438D02*
X135107143Y-70954819D01*
X135107143Y-70954819D02*
X135345238Y-70954819D01*
X135345238Y-70954819D02*
X135488095Y-71002438D01*
X135821429Y-70954819D02*
X136059524Y-71954819D01*
X136059524Y-71954819D02*
X136250000Y-71240533D01*
X136250000Y-71240533D02*
X136440476Y-71954819D01*
X136440476Y-71954819D02*
X136678572Y-70954819D01*
X137583333Y-71954819D02*
X137011905Y-71954819D01*
X137297619Y-71954819D02*
X137297619Y-70954819D01*
X137297619Y-70954819D02*
X137202381Y-71097676D01*
X137202381Y-71097676D02*
X137107143Y-71192914D01*
X137107143Y-71192914D02*
X137011905Y-71240533D01*
X156666666Y-81914819D02*
X156666666Y-82629104D01*
X156666666Y-82629104D02*
X156619047Y-82771961D01*
X156619047Y-82771961D02*
X156523809Y-82867200D01*
X156523809Y-82867200D02*
X156380952Y-82914819D01*
X156380952Y-82914819D02*
X156285714Y-82914819D01*
X157666666Y-82914819D02*
X157095238Y-82914819D01*
X157380952Y-82914819D02*
X157380952Y-81914819D01*
X157380952Y-81914819D02*
X157285714Y-82057676D01*
X157285714Y-82057676D02*
X157190476Y-82152914D01*
X157190476Y-82152914D02*
X157095238Y-82200533D01*
D11*
%TO.C,R4*%
X156272936Y-102765000D02*
X156727064Y-102765000D01*
X156272936Y-104235000D02*
X156727064Y-104235000D01*
%TO.C,J2*%
X154620000Y-90230000D02*
X154620000Y-87580000D01*
X157380000Y-87580000D02*
X154620000Y-87580000D01*
X157380000Y-90230000D02*
X154620000Y-90230000D01*
X157380000Y-90230000D02*
X157380000Y-87580000D01*
X157380000Y-91500000D02*
X157380000Y-92880000D01*
X157380000Y-92880000D02*
X156000000Y-92880000D01*
%TO.C,J4*%
X140540000Y-108620000D02*
X140540000Y-111380000D01*
X145730000Y-108620000D02*
X140540000Y-108620000D01*
X145730000Y-108620000D02*
X145730000Y-111380000D01*
X145730000Y-111380000D02*
X140540000Y-111380000D01*
X147000000Y-108620000D02*
X148380000Y-108620000D01*
X148380000Y-108620000D02*
X148380000Y-110000000D01*
%TO.C,R1*%
X149360436Y-73265000D02*
X149814564Y-73265000D01*
X149360436Y-74735000D02*
X149814564Y-74735000D01*
%TO.C,R3*%
X140765000Y-96314564D02*
X140765000Y-95860436D01*
X142235000Y-96314564D02*
X142235000Y-95860436D01*
%TO.C,R2*%
X132765000Y-96402064D02*
X132765000Y-95947936D01*
X134235000Y-96402064D02*
X134235000Y-95947936D01*
%TO.C,D2*%
X134455000Y-88195000D02*
X134920000Y-88195000D01*
X137080000Y-88195000D02*
X137545000Y-88195000D01*
X134455170Y-88195000D02*
G75*
G02*
X134920000Y-82846864I1544830J2560000D01*
G01*
X134920000Y-87889684D02*
G75*
G02*
X134920000Y-83380316I1080000J2254684D01*
G01*
X137080000Y-82846864D02*
G75*
G02*
X137544830Y-88195000I-1080000J-2788136D01*
G01*
X137080000Y-83380316D02*
G75*
G02*
X137080000Y-87889684I-1080000J-2254684D01*
G01*
%TO.C,SW1*%
X132750000Y-75000000D02*
X132750000Y-76500000D01*
X134000000Y-79000000D02*
X138500000Y-79000000D01*
X138500000Y-72500000D02*
X134000000Y-72500000D01*
X139750000Y-76500000D02*
X139750000Y-75000000D01*
%TO.C,J1*%
X155620000Y-78810000D02*
X155620000Y-73620000D01*
X158380000Y-73620000D02*
X155620000Y-73620000D01*
X158380000Y-78810000D02*
X155620000Y-78810000D01*
X158380000Y-78810000D02*
X158380000Y-73620000D01*
X158380000Y-80080000D02*
X158380000Y-81460000D01*
X158380000Y-81460000D02*
X157000000Y-81460000D01*
%TD*%
M02*
